# xmcd CD database file
#
# Track frame offsets:
#	182
#	16227
#	28240
#
# Disc length: 648 seconds
#
# Revision: 0
# Processed by: cddbd v1.5.2PL0 Copyright (c) Steve Scherf et al.
# Submitted via: CDex 1.70beta2
#
DISCID=1b028603
DTITLE=Clay Walker - Say No More Sneak Preview
DYEAR=2001
DGENRE=Country
TTITLE0=Real (Album Version)
TTITLE1=Texas Swing (Album Version)
TTITLE2=The Chain Of Love (Acoustic Version)
EXTD=YEAR: 2001
EXTT0=
EXTT1=
EXTT2=
PLAYORDER=
